<svg xmlns="http://www.w3.org/2000/svg" viewBox="0 0 268 72" role="img" aria-label="JRN Agro LTD">
  <title>JRN Agro LTD</title>
  <g transform="translate(2 4) scale(0.667)">
    <circle cx="48" cy="48" r="45" fill="none" stroke="#1e5631" stroke-width="5.5"/>
    <circle cx="48" cy="48" r="38" fill="none" stroke="#1e5631" stroke-width="1.25" opacity="0.45"/>
    <path fill="#1e5631" d="M24 36c0-8 7-15 16-16 6-1 12 1 16 5 2-3 6-5 10-4 5 1 8 6 8 11 0 3-1 5-3 7 4 3 6 8 5 13-1 8-8 14-16 15-3 4-8 6-13 6-9 0-16-6-18-14-4-2-7-7-6-12 1-4 3-8 7-11z"/>
    <ellipse cx="36" cy="40" rx="3.2" ry="3.8" fill="#0c2414"/>
    <ellipse cx="48" cy="39" rx="3.2" ry="3.8" fill="#0c2414"/>
    <ellipse cx="42" cy="50" rx="6" ry="4.2" fill="#0c2414"/>
    <path fill="#1e5631" d="M62 26c4-6 9-9 14-10-2 4-2 8 0 12-4 1-8 1-12 0l-2-2z"/>
    <path fill="#1e5631" d="M30 58c7-3 15-2 21 2 4 3 5 7 3 11-7 0-14-1-21 1-4 1-7-2-7-6 0-3 1-6 4-8z"/>
    <path fill="#1e5631" d="M50 61c5 2 9 6 11 11-5-1-9-3-12-6v-5z"/>
    <path fill="#1e5631" d="M36 52c3-5 7-7 11-7-3 3-4 6-5 9h-6z"/>
    <circle cx="42" cy="63" r="1.5" fill="#0c2414"/>
  </g>
  <text x="78" y="32" fill="#1b2e3c" font-family="Montserrat, Arial, sans-serif" font-size="15" font-weight="700" letter-spacing="0.14em">JRN AGRO</text>
  <text x="78" y="54" fill="#1b2e3c" font-family="Montserrat, Arial, sans-serif" font-size="13" font-weight="600" letter-spacing="0.28em" opacity="0.85">LTD</text>
</svg>
